<?xml version="1.0" encoding="UTF-8"?>
<svg id="Logo" xmlns="http://www.w3.org/2000/svg" viewBox="0 0 993.68 279.79">
  <defs>
    <style>
      .cls-1 {
        fill: #fff;
      }
    </style>
  </defs>
  <g>
    <path class="cls-1" d="m324.75,187.47h-.12c-8.25-.11-15.59-5.24-18.57-13.04l-.75-2.35-24.64-77.7h16.21l28.14,88.83,28.17-88.83h16.21l-25.47,80.32c-3.11,7.68-10.4,12.67-18.61,12.76h-.58Z"/>
    <path class="cls-1" d="m472.04,125.1v40.73c0,2.76.64,4.74,1.94,5.94,1.29,1.2,3.49,1.8,6.61,1.8h9.35v12.68h-12.02c-6.86,0-12.11-1.6-15.76-4.81-3.65-3.21-5.47-8.41-5.47-15.62v-40.73h-14.28v-6.8h0c8.61-3.39,15.4-10.17,15.4-19.43v-4.49h14.23v18.29h17.89v12.42h-17.89Z"/>
    <path class="cls-1" d="m439.23,155.12h-56.22c.44,5.88,2.62,10.59,6.54,14.16,3.92,3.56,8.72,5.34,14.42,5.34,8.19,0,13.97-3.43,17.36-10.28h16.42c-2.23,6.77-6.26,12.31-12.08,16.62-5.83,4.32-13.07,6.48-21.7,6.48-7.03,0-13.33-1.58-18.89-4.74-5.56-3.16-9.93-7.61-13.09-13.35-3.16-5.74-4.74-12.4-4.74-19.96s1.54-14.22,4.61-19.96c3.07-5.74,7.39-10.17,12.95-13.29,5.56-3.12,11.95-4.67,19.16-4.67s13.13,1.52,18.56,4.54c5.43,3.03,9.66,7.28,12.68,12.75,3.03,5.47,4.54,11.77,4.54,18.9,0,2.76-.18,5.25-.53,7.48Zm-15.36-12.28c-.09-5.61-2.09-10.1-6.01-13.49-3.92-3.38-8.77-5.07-14.55-5.07-5.25,0-9.75,1.67-13.49,5.01-3.74,3.34-5.96,7.86-6.68,13.55h40.73Z"/>
    <path class="cls-1" d="m526.49,114.59c3.69-2.09,8.08-3.14,13.15-3.14v15.76h-3.87c-5.96,0-10.48,1.52-13.55,4.54-3.07,3.03-4.61,8.28-4.61,15.76v38.72h-15.22v-73.57h15.22v10.68c2.22-3.74,5.19-6.65,8.88-8.75Z"/>
    <path class="cls-1" d="m560.82,182.69c-5.61-3.16-10.01-7.61-13.22-13.35-3.2-5.74-4.81-12.4-4.81-19.96s1.65-14.11,4.94-19.89c3.29-5.79,7.79-10.24,13.49-13.35,5.7-3.12,12.06-4.67,19.09-4.67s13.4,1.56,19.1,4.67c5.7,3.12,10.19,7.57,13.49,13.35,3.29,5.79,4.94,12.42,4.94,19.89s-1.69,14.11-5.07,19.9c-3.38,5.79-7.99,10.26-13.82,13.42-5.83,3.16-12.26,4.74-19.3,4.74s-13.22-1.58-18.83-4.74Zm29.84-11.28c3.43-1.87,6.21-4.67,8.35-8.41,2.14-3.74,3.2-8.28,3.2-13.62s-1.02-9.86-3.07-13.55c-2.05-3.69-4.76-6.48-8.15-8.35-3.38-1.87-7.03-2.81-10.95-2.81s-7.55.93-10.88,2.81c-3.34,1.87-5.99,4.65-7.95,8.35-1.96,3.69-2.94,8.21-2.94,13.55,0,7.92,2.02,14.04,6.08,18.36,4.05,4.32,9.15,6.47,15.29,6.47,3.92,0,7.59-.93,11.02-2.8Z"/>
    <path class="cls-1" d="m654.44,114.93c4.45-2.31,9.48-3.47,15.09-3.47,6.41,0,12.26,1.58,17.56,4.74,5.3,3.16,9.46,7.59,12.48,13.29,3.03,5.7,4.54,12.24,4.54,19.63s-1.51,14-4.54,19.83c-3.03,5.83-7.19,10.37-12.48,13.62-5.3,3.25-11.15,4.88-17.56,4.88-5.61,0-10.59-1.14-14.96-3.41-4.36-2.27-7.92-5.09-10.68-8.48v37.83h-15.22v-100.73h15.22v10.82c2.58-3.38,6.1-6.23,10.55-8.55Zm31.05,21.03c-2.09-3.69-4.85-6.5-8.28-8.41-3.43-1.91-7.1-2.87-11.02-2.87s-7.46.98-10.88,2.94c-3.43,1.96-6.19,4.81-8.28,8.55-2.09,3.74-3.14,8.14-3.14,13.22s1.05,9.5,3.14,13.29c2.09,3.79,4.85,6.66,8.28,8.61,3.43,1.96,7.05,2.94,10.88,2.94s7.59-1,11.02-3c3.43-2,6.19-4.92,8.28-8.75,2.09-3.83,3.14-8.28,3.14-13.35s-1.05-9.46-3.14-13.15Z"/>
    <path class="cls-1" d="m730.16,94.39v91.84h-15.22v-91.84h15.22Z"/>
    <path class="cls-1" d="m812.21,112.66v73.57h-15.22v-8.68c-2.4,3.03-5.54,5.41-9.41,7.14-3.87,1.74-7.99,2.6-12.35,2.6-5.79,0-10.97-1.2-15.56-3.61-4.59-2.4-8.19-5.96-10.82-10.68-2.63-4.72-3.94-10.42-3.94-17.09v-43.26h15.09v40.99c0,6.59,1.65,11.64,4.94,15.16,3.29,3.52,7.79,5.28,13.49,5.28s10.22-1.76,13.55-5.28c3.34-3.52,5.01-8.57,5.01-15.16v-40.99h15.22Z"/>
    <path class="cls-1" d="m838.61,184.3c-4.59-2.09-8.21-4.94-10.88-8.55-2.67-3.6-4.09-7.63-4.27-12.08h15.76c.27,3.12,1.76,5.72,4.47,7.81,2.71,2.09,6.12,3.14,10.21,3.14s7.59-.82,9.95-2.47c2.36-1.65,3.54-3.76,3.54-6.34,0-2.76-1.31-4.81-3.94-6.14-2.63-1.33-6.79-2.8-12.48-4.41-5.52-1.51-10.02-2.98-13.49-4.41-3.47-1.42-6.48-3.61-9.01-6.54-2.54-2.94-3.81-6.81-3.81-11.62,0-3.92,1.16-7.5,3.47-10.75,2.31-3.25,5.63-5.81,9.95-7.68,4.32-1.87,9.28-2.81,14.89-2.81,8.37,0,15.11,2.12,20.23,6.34,5.12,4.23,7.86,9.99,8.21,17.29h-15.22c-.27-3.29-1.6-5.92-4.01-7.88-2.4-1.96-5.65-2.94-9.75-2.94s-7.08.76-9.21,2.27c-2.14,1.51-3.21,3.52-3.21,6.01,0,1.96.71,3.61,2.14,4.94,1.42,1.34,3.16,2.38,5.21,3.14,2.05.76,5.07,1.72,9.08,2.87,5.34,1.43,9.72,2.87,13.15,4.34,3.42,1.47,6.39,3.63,8.88,6.48,2.49,2.85,3.78,6.63,3.87,11.35,0,4.19-1.16,7.92-3.47,11.22-2.32,3.29-5.59,5.88-9.81,7.74-4.23,1.87-9.19,2.81-14.89,2.81s-10.97-1.05-15.56-3.14Z"/>
    <path class="cls-1" d="m905.08,184.3c-4.59-2.09-8.21-4.94-10.88-8.55-2.67-3.6-4.09-7.63-4.27-12.08h15.76c.27,3.12,1.76,5.72,4.47,7.81,2.71,2.09,6.12,3.14,10.21,3.14s7.59-.82,9.95-2.47c2.36-1.65,3.54-3.76,3.54-6.34,0-2.76-1.31-4.81-3.94-6.14-2.63-1.33-6.79-2.8-12.48-4.41-5.52-1.51-10.02-2.98-13.49-4.41-3.47-1.42-6.48-3.61-9.01-6.54-2.54-2.94-3.81-6.81-3.81-11.62,0-3.92,1.16-7.5,3.47-10.75,2.31-3.25,5.63-5.81,9.95-7.68,4.32-1.87,9.28-2.81,14.89-2.81,8.37,0,15.11,2.12,20.23,6.34,5.12,4.23,7.86,9.99,8.21,17.29h-15.22c-.27-3.29-1.6-5.92-4.01-7.88-2.4-1.96-5.65-2.94-9.75-2.94s-7.08.76-9.21,2.27c-2.14,1.51-3.21,3.52-3.21,6.01,0,1.96.71,3.61,2.14,4.94,1.42,1.34,3.16,2.38,5.21,3.14,2.05.76,5.07,1.72,9.08,2.87,5.34,1.43,9.72,2.87,13.15,4.34,3.42,1.47,6.39,3.63,8.88,6.48,2.49,2.85,3.78,6.63,3.87,11.35,0,4.19-1.16,7.92-3.47,11.22-2.32,3.29-5.59,5.88-9.81,7.74-4.23,1.87-9.19,2.81-14.89,2.81s-10.97-1.05-15.56-3.14Z"/>
  </g>
  <g>
    <path class="cls-1" d="m129.75,52.96c0,43.07-34.91,77.99-77.99,77.99-1.74,0-3.47-.06-5.19-.17,4.45-43.83,39.2-78.72,82.97-83.36.13,1.83.2,3.68.2,5.55Z"/>
    <path class="cls-1" d="m232.94,140.31h-93.42V46.89c51.6,0,93.42,41.83,93.42,93.42Z"/>
    <path class="cls-1" d="m139.52,140.31v93.42c-51.6,0-93.42-41.83-93.42-93.42h93.42Z"/>
    <path class="cls-1" d="m232.46,149.85c-4.45,43.83-39.2,78.72-82.97,83.36-.13-1.83-.2-3.68-.2-5.55,0-43.07,34.91-77.99,77.99-77.99,1.74,0,3.47.06,5.19.17Z"/>
  </g>
</svg>